<?xml version="1.0" encoding="utf-8"?>
<!-- Generator: Adobe Illustrator 23.0.1, SVG Export Plug-In . SVG Version: 6.00 Build 0)  -->
<svg version="1.1" id="Layer_1" xmlns="http://www.w3.org/2000/svg" xmlns:xlink="http://www.w3.org/1999/xlink" x="0px" y="0px"
	 viewBox="0 0 475.02 97.12" style="enable-background:new 0 0 475.02 97.12;" xml:space="preserve">
<style type="text/css">
	.st0{fill:#F39200;}
	.st1{fill:#006633;}
	.st2{fill:#FFFFFF;}
	.st3{fill:#234B9B;}
	.st4{fill:#AC2A17;}
	.st5{fill:#AF2617;}
	.st6{fill:#2B54A2;}
	.st7{fill:#6A200B;}
	.st8{fill:#871C12;}
	.st9{fill:#197A34;}
	.st10{fill:#19331C;}
	.st11{fill:#8B2112;}
	.st12{fill:#1C4620;}
	.st13{fill:#3D70B6;}
	.st14{fill:#1A612C;}
	.st15{fill:#0C766E;}
	.st16{fill:#250C0B;}
	.st17{fill:#CA2317;}
	.st18{fill:#426EB5;}
	.st19{fill:#113C20;}
	.st20{fill:#1B7733;}
	.st21{fill:#911C13;}
	.st22{fill:#18612C;}
	.st23{fill:#5A240F;}
	.st24{fill:#5194D0;}
	.st25{fill:#E52A20;}
	.st26{fill:#E32818;}
	.st27{fill:#4D2610;}
	.st28{fill:#A12416;}
	.st29{fill:#0A6C68;}
	.st30{fill:#941914;}
	.st31{fill:#14968F;}
	.st32{fill:#255530;}
	.st33{fill:#5990CC;}
	.st34{fill:#661F0B;}
	.st35{fill:#4B89C8;}
	.st36{fill:#182316;}
	.st37{fill:#F8B372;}
	.st38{fill:#5F99D2;}
	.st39{fill:#FAC40D;}
	.st40{fill:#10381F;}
	.st41{fill:#99D6F1;}
	.st42{fill:#9AAA20;}
	.st43{fill:#EB611D;}
	.st44{fill:#53A2DA;}
	.st45{fill:#1F6D30;}
	.st46{fill:#8DD2EE;}
	.st47{fill:#1B3A1D;}
	.st48{fill:#62150E;}
	.st49{fill:#5A250F;}
	.st50{fill:#4D2111;}
	.st51{fill:#093536;}
	.st52{fill:#74230E;}
	.st53{fill:#EE701C;}
	.st54{fill:#EF7C40;}
	.st55{fill:#B2A315;}
	.st56{fill:#2A2527;}
	.st57{fill:#1B5F98;}
	.st58{fill:#457BBE;}
	.st59{fill:#08602F;}
	.st60{fill:#558FCC;}
	.st61{fill:#1D2216;}
	.st62{fill:#AC1917;}
	.st63{fill:#71A9DC;}
	.st64{fill:#86CFF4;}
	.st65{fill:#852812;}
	.st66{fill:#392526;}
	.st67{fill:#15642D;}
	.st68{fill:#62A0D7;}
	.st69{fill:#223D1D;}
	.st70{fill:#522A11;}
	.st71{fill:#F08127;}
	.st72{fill:#552911;}
	.st73{fill:#0D7834;}
	.st74{fill:#B71E18;}
	.st75{fill:#AF1917;}
	.st76{fill:#2C9E37;}
	.st77{fill:#E62E20;}
	.st78{fill:#EC5F4E;}
	.st79{fill:#6BB535;}
	.st80{fill:#94C12B;}
	.st81{fill:#32371A;}
	.st82{fill:#151213;}
	.st83{fill:#EB583C;}
	.st84{fill:#6AB435;}
	.st85{fill:#B26116;}
	.st86{fill:#892A13;}
	.st87{fill:#3A2313;}
	.st88{fill:#E75D2B;}
	.st89{fill:#B92518;}
	.st90{fill:#E2E25C;}
	.st91{fill:#CFD552;}
	.st92{fill:#EB601E;}
	.st93{fill:#EE712B;}
	.st94{fill:#EBE667;}
	.st95{fill:#EA5B1A;}
	.st96{fill:#14130D;}
	.st97{fill:#AA3D17;}
	.st98{fill:#FBC15D;}
	.st99{fill:#892012;}
	.st100{fill:#E73D23;}
	.st101{fill:#BA2318;}
	.st102{fill:#8DBF2D;}
	.st103{fill:#5AADE1;}
	.st104{fill:#EF7B29;}
	.st105{fill:#52AE32;}
	.st106{fill:#645C1C;}
	.st107{fill:#FDE738;}
	.st108{fill:#EA6513;}
	.st109{fill:#5C96D0;}
	.st110{fill:#447DBF;}
	.st111{fill:#A1B931;}
	.st112{fill:#8D2413;}
	.st113{fill:#8BBE38;}
	.st114{fill:#4C91CE;}
	.st115{fill:#F49A6E;}
	.st116{fill:#659CD4;}
	.st117{fill:#7FCFF5;}
	.st118{fill:#481E0F;}
	.st119{fill:#6A150D;}
	.st120{fill:#1E294D;}
	.st121{fill:#FECC39;}
	.st122{fill:#C62E18;}
	.st123{fill:#23873C;}
	.st124{fill:#FED063;}
	.st125{fill:#F49A48;}
	.st126{fill:#315CA7;}
	.st127{fill:#E8E88C;}
	.st128{fill:#EB5F3A;}
	.st129{fill:#F0802C;}
	.st130{fill:#0C7A64;}
	.st131{fill:#233D1D;}
	.st132{fill:#A5C131;}
	.st133{fill:#523012;}
	.st134{fill:#EC6747;}
	.st135{fill:#EB5F17;}
	.st136{fill:#A2C73E;}
	.st137{fill:#DD301C;}
	.st138{fill:#EB5C41;}
	.st139{fill:#5993CF;}
	.st140{fill:#CCD73F;}
	.st141{fill:#EC631F;}
	.st142{fill:#084432;}
	.st143{fill:#98BF27;}
	.st144{fill:#CE2917;}
	.st145{fill:#9CC543;}
	.st146{fill:#E84123;}
	.st147{fill:#9E9019;}
	.st148{fill:#E35A42;}
	.st149{fill:#1E1813;}
	.st150{fill:#502911;}
	.st151{fill:#F5BA64;}
	.st152{fill:#812011;}
	.st153{fill:#86CEF4;}
	.st154{fill:#ED6C21;}
	.st155{fill:#1C2732;}
	.st156{fill:#ACCB54;}
	.st157{fill:#7C5613;}
	.st158{fill:#9D951B;}
	.st159{fill:#742D0E;}
	.st160{fill:#82BC3C;}
	.st161{fill:#F9B247;}
	.st162{fill:#DA2815;}
	.st163{fill:#A41916;}
	.st164{fill:#EB8636;}
	.st165{fill:#238239;}
	.st166{fill:#463A17;}
	.st167{fill:#ED6A49;}
	.st168{fill:#572811;}
	.st169{fill:#A1C63D;}
	.st170{fill:#058279;}
	.st171{fill:#84BC2D;}
	.st172{fill:#EC6346;}
	.st173{fill:#FFD577;}
	.st174{fill:#355F28;}
	.st175{fill:#303E4C;}
	.st176{fill:#E55640;}
	.st177{fill:#3C8834;}
	.st178{fill:#FCC153;}
	.st179{fill:#8F6714;}
	.st180{fill:#318C36;}
	.st181{fill:#A63E17;}
	.st182{fill:#1B1A1D;}
	.st183{fill:#5383C3;}
	.st184{fill:#CED959;}
	.st185{fill:#E46915;}
	.st186{fill:#46AC34;}
	.st187{fill:#21321B;}
	.st188{fill:#4BAD33;}
	.st189{fill:#5F6944;}
	.st190{fill:#F07F2C;}
	.st191{fill:#DB2715;}
	.st192{fill:#DB5E43;}
	.st193{fill:#4F82C3;}
	.st194{fill:#7F3311;}
	.st195{fill:#812F11;}
	.st196{fill:#661B0E;}
	.st197{fill:#D83D17;}
	.st198{fill:#3D69B1;}
	.st199{fill:#E8EA9A;}
	.st200{fill:#D52916;}
	.st201{fill:#2FA836;}
	.st202{fill:#21622C;}
	.st203{fill:#F29161;}
	.st204{fill:#45262E;}
	.st205{fill:#F0A47E;}
	.st206{fill:#5F3243;}
	.st207{fill:#D05118;}
	.st208{fill:#3C8B35;}
	.st209{fill:#A5BA23;}
	.st210{fill:#98C334;}
	.st211{fill:#403728;}
	.st212{fill:#99921C;}
	.st213{fill:#E73928;}
	.st214{fill:#D2DE7E;}
	.st215{fill:#4872B8;}
	.st216{fill:#A0C634;}
	.st217{fill:#AECA2C;}
	.st218{fill:#0E3F69;}
	.st219{fill:#22672D;}
	.st220{fill:#212618;}
	.st221{fill:#5C2110;}
	.st222{fill:#282013;}
	.st223{fill:#422513;}
	.st224{fill:#75B840;}
	.st225{fill:#F0855E;}
	.st226{fill:#F6A351;}
	.st227{fill:#157633;}
	.st228{fill:#F4DB6D;}
	.st229{fill:#1A4294;}
	.st230{fill:#B9CF29;}
	.st231{fill:#7F9D2A;}
	.st232{fill:#D49A45;}
	.st233{fill:#325AA6;}
	.st234{fill:#384946;}
	.st235{fill:#C6D870;}
	.st236{fill:#E8E349;}
	.st237{fill:#68A6DB;}
	.st238{fill:#F2E86A;}
	.st239{fill:#596C26;}
	.st240{fill:#F19935;}
	.st241{fill:#613511;}
	.st242{fill:#542C12;}
	.st243{fill:#3667B0;}
	.st244{fill:#E6361D;}
	.st245{fill:#E9EB9E;}
	.st246{fill:#B98923;}
	.st247{fill:#61260D;}
	.st248{fill:#A99E17;}
	.st249{fill:#218C76;}
	.st250{fill:#FAB53E;}
	.st251{fill:#F6A249;}
	.st252{fill:#44A653;}
	.st253{fill:#A38E1D;}
	.st254{fill:#F49A70;}
	.st255{fill:#D3DE7B;}
	.st256{fill:#F49539;}
	.st257{fill:#C8DA7F;}
	.st258{fill:#578BC9;}
	.st259{fill:#FEDB21;}
	.st260{fill:#649CD4;}
	.st261{fill:#4A87C6;}
	.st262{fill:#B8A521;}
	.st263{fill:#9B1915;}
	.st264{fill:#935217;}
	.st265{fill:#EDE0BB;}
	.st266{fill:#213937;}
	.st267{fill:#6C350E;}
	.st268{fill:#A69D18;}
	.st269{fill:#94C136;}
	.st270{fill:#E6943A;}
	.st271{fill:#2751A0;}
	.st272{fill:#3666AF;}
	.st273{fill:#90C3EA;}
	.st274{fill:#FCC24A;}
	.st275{fill:#1D5828;}
	.st276{fill:#3157A4;}
	.st277{fill:#4A1F10;}
	.st278{fill:#66B447;}
	.st279{fill:#DB3715;}
	.st280{fill:#B1D17E;}
	.st281{fill:#0F9086;}
	.st282{fill:#C5CC39;}
	.st283{fill:#FBBB47;}
	.st284{fill:#F8AB4A;}
	.st285{fill:#2D59A5;}
	.st286{fill:#F9DA40;}
	.st287{fill:#F7B07F;}
	.st288{fill:#42180D;}
	.st289{fill:#FCC361;}
	.st290{fill:#A6AB1B;}
	.st291{fill:#886C16;}
	.st292{fill:#6793CD;}
	.st293{fill:#FDC966;}
	.st294{fill:#277A64;}
	.st295{fill:#3867B0;}
	.st296{fill:#1C282B;}
	.st297{fill:#2D1D29;}
	.st298{fill:#AA901B;}
	.st299{fill:#90C036;}
	.st300{fill:#34B7B5;}
	.st301{fill:#AECE67;}
	.st302{fill:#72CBF4;}
	.st303{fill:#865813;}
	.st304{fill:#E7E34A;}
	.st305{fill:#ABCB55;}
	.st306{fill:#7D1D10;}
	.st307{fill:#103C21;}
	.st308{fill:#493F1B;}
	.st309{fill:#8D3B14;}
	.st310{fill:#FBBB48;}
	.st311{fill:#AECD54;}
	.st312{fill:#FADB4F;}
	.st313{fill:#3D3428;}
	.st314{fill:#F6A86F;}
	.st315{fill:#367E33;}
	.st316{fill:#F1A74C;}
	.st317{fill:#FBC061;}
	.st318{fill:#866314;}
	.st319{fill:#3D76BB;}
	.st320{fill:#8D6614;}
	.st321{fill:#675918;}
	.st322{fill:#F5A468;}
	.st323{fill:#D6633A;}
	.st324{fill:#E8442A;}
	.st325{fill:#479DD7;}
	.st326{fill:#9D2A15;}
	.st327{fill:#EDEA85;}
	.st328{fill:#EB5A32;}
	.st329{fill:#F29077;}
	.st330{fill:#8DBF42;}
	.st331{fill:#E7E241;}
	.st332{fill:#E7E231;}
	.st333{fill:#6BAA44;}
	.st334{fill:#3D78BC;}
	.st335{fill:#4579BD;}
	.st336{fill:#4269B0;}
	.st337{fill:#18ACA0;}
	.st338{fill:#74BA5E;}
	.st339{fill:#6F5012;}
	.st340{fill:#E4D731;}
	.st341{fill:#432412;}
	.st342{fill:#FECD5E;}
	.st343{fill:#FBBD47;}
	.st344{fill:#DB3315;}
	.st345{fill:#F08073;}
	.st346{fill:#60A1D8;}
	.st347{fill:#6F150C;}
	.st348{fill:#466CB2;}
	.st349{fill:#A6BE59;}
	.st350{fill:#1C441F;}
	.st351{fill:#BAE2F4;}
	.st352{fill:#7C170F;}
	.st353{fill:#E0BA4B;}
	.st354{fill:#73AFE0;}
	.st355{fill:#235CA8;}
	.st356{fill:#80C2EC;}
	.st357{fill:#AB954A;}
	.st358{fill:#0DB4BD;}
	.st359{fill:#C1BE3B;}
	.st360{fill:#416FB6;}
	.st361{fill:#9AC440;}
	.st362{fill:#6DA0D6;}
	.st363{fill:#7097CB;}
	.st364{fill:#982615;}
	.st365{fill:#CFD063;}
	.st366{fill:#6D4446;}
	.st367{fill:#2E58A5;}
	.st368{fill:#7B9CD1;}
	.st369{fill:#505074;}
	.st370{fill:#B8A543;}
	.st371{fill:#8ABF45;}
	.st372{fill:#FAB948;}
	.st373{fill:#653714;}
	.st374{fill:#F3D33D;}
	.st375{fill:#85BAE6;}
	.st376{fill:#4470B6;}
	.st377{fill:#EF7C4D;}
	.st378{fill:#E5DE28;}
	.st379{fill:#7F9ED2;}
	.st380{fill:#A64117;}
	.st381{fill:#2BB0AC;}
	.st382{fill:#FAB644;}
	.st383{fill:#2E56A3;}
	.st384{fill:#DCDF53;}
	.st385{fill:#1B4821;}
	.st386{fill:#356BB2;}
	.st387{fill:#794417;}
	.st388{fill:#21574C;}
	.st389{fill:#F5A958;}
	.st390{fill:#67140F;}
	.st391{fill:#E0DF36;}
	.st392{fill:#DB772D;}
	.st393{fill:#93C45E;}
	.st394{fill:#FFD367;}
	.st395{fill:#4F4116;}
	.st396{fill:#6E9FD5;}
	.st397{fill:#F6A144;}
	.st398{fill:#8E4914;}
	.st399{fill:#643525;}
	.st400{fill:#E8CB79;}
	.st401{fill:#9CC429;}
	.st402{fill:#3A3767;}
	.st403{fill:#E6E241;}
	.st404{fill:#4F2A12;}
	.st405{fill:#3968B0;}
	.st406{fill:#A41F16;}
	.st407{fill:#3E54A1;}
	.st408{fill:#5FA751;}
	.st409{fill:#978820;}
	.st410{fill:#F4E951;}
	.st411{fill:#2452A0;}
	.st412{fill:#139D96;}
	.st413{fill:#F7E178;}
	.st414{fill:#9A7B58;}
	.st415{fill:#EC6920;}
	.st416{fill:#305777;}
	.st417{fill:#CDD84A;}
	.st418{fill:#8B466C;}
	.st419{fill:#21708B;}
	.st420{fill:#EC622A;}
	.st421{fill:#C95D2B;}
	.st422{fill:#2D55A3;}
	.st423{fill:#D76C2D;}
	.st424{fill:#B9CF26;}
	.st425{fill:#1F5527;}
	.st426{fill:#1B3257;}
	.st427{fill:#D57E48;}
	.st428{fill:#441B0F;}
	.st429{fill:#D9E073;}
	.st430{fill:#E88724;}
	.st431{fill:#7A8EC8;}
	.st432{fill:#6BBB82;}
	.st433{fill:#064332;}
	.st434{fill:#208D7F;}
	.st435{fill:#57B25A;}
	.st436{fill:#DFE79F;}
	.st437{fill:#6DA244;}
	.st438{fill:#E0E04D;}
	.st439{fill:#EC6520;}
	.st440{fill:#C52518;}
	.st441{fill:#E0E267;}
	.st442{fill:#3D1F11;}
	.st443{fill:#73B0CA;}
	.st444{fill:#DF7426;}
	.st445{fill:#E8E33C;}
	.st446{fill:#F7AB51;}
	.st447{fill:#E2E152;}
	.st448{fill:#C5D452;}
	.st449{fill:#36889C;}
	.st450{fill:#B57D39;}
	.st451{fill:#87B5E2;}
	.st452{fill:#B2CD4E;}
	.st453{fill:#B4CD2C;}
	.st454{fill:#EC661F;}
	.st455{fill:#563313;}
	.st456{fill:#EF7A4E;}
	.st457{fill:#B39730;}
	.st458{fill:#C04226;}
	.st459{fill:#3055A2;}
	.st460{fill:#F39458;}
	.st461{fill:#73B4E4;}
	.st462{fill:#DDE388;}
	.st463{fill:#AB4B2D;}
	.st464{fill:#ED694D;}
	.st465{fill:#145691;}
	.st466{fill:#196555;}
	.st467{fill:#429835;}
	.st468{fill:#E52E17;}
	.st469{fill:#6F360F;}
	.st470{fill:#BDBF49;}
	.st471{fill:#FCC661;}
	.st472{fill:#833224;}
	.st473{fill:#EA661D;}
	.st474{fill:#7E3815;}
	.st475{fill:#708F2C;}
	.st476{fill:#82BBD6;}
	.st477{fill:#D28832;}
	.st478{fill:#D1D93C;}
	.st479{fill:#275FAA;}
	.st480{fill:#69BEA2;}
	.st481{fill:#A3C341;}
	.st482{fill:#168C84;}
	.st483{fill:#67C3CF;}
	.st484{fill:#A26D14;}
	.st485{fill:#9D9C4F;}
	.st486{fill:#172216;}
	.st487{fill:#13324C;}
	.st488{fill:#456BB2;}
	.st489{fill:#0A232F;}
	.st490{fill:#64C3CF;}
	.st491{fill:#D6441C;}
	.st492{fill:#661C0F;}
	.st493{fill:#6BB649;}
	.st494{fill:#A0C753;}
	.st495{fill:#396132;}
	.st496{fill:#78922A;}
	.st497{fill:#5F415D;}
	.st498{fill:#2E53A1;}
	.st499{fill:#138169;}
	.st500{fill:#3F649D;}
	.st501{fill:#8D2713;}
	.st502{fill:#ECEB98;}
	.st503{fill:#50551E;}
	.st504{fill:#3566AF;}
	.st505{fill:#E3CE69;}
	.st506{fill:#9ACA85;}
	.st507{fill:#FCC155;}
	.st508{fill:#349F94;}
	.st509{fill:#40B39B;}
	.st510{fill:#203733;}
	.st511{fill:#9F9832;}
	.st512{fill:#09393E;}
	.st513{fill:#B7572E;}
	.st514{fill:#76A4D8;}
	.st515{fill:#BD6429;}
	.st516{fill:#178F85;}
	.st517{fill:#E7E563;}
	.st518{fill:#6FC7DB;}
	.st519{fill:#57BDB7;}
	.st520{fill:#119695;}
	.st521{fill:#ACD083;}
	.st522{fill:#289BA7;}
	.st523{fill:#D94B14;}
	.st524{fill:#468432;}
	.st525{fill:#FFD662;}
	.st526{fill:#D15A37;}
	.st527{fill:#64BFB4;}
	.st528{fill:#55243C;}
	.st529{fill:#99C663;}
	.st530{fill:#ADCB36;}
	.st531{fill:#8DB4E0;}
	.st532{fill:#47AE55;}
	.st533{fill:#335081;}
	.st534{fill:#8AC58D;}
	.st535{fill:#8EC042;}
	.st536{fill:#FAB74A;}
	.st537{fill:#9DC760;}
	.st538{fill:#147E72;}
	.st539{fill:#83B79C;}
	.st540{fill:#AE8926;}
	.st541{fill:#D9E07A;}
	.st542{fill:#927835;}
	.st543{fill:#8B5314;}
	.st544{fill:#64C1C0;}
	.st545{fill:#EB621F;}
	.st546{fill:#EB611B;}
	.st547{fill:#567E32;}
	.st548{fill:#283B1C;}
	.st549{fill:#F8EE76;}
	.st550{fill:#E96221;}
	.st551{fill:#BC9C25;}
	.st552{fill:#EE7546;}
	.st553{fill:#0F9491;}
	.st554{fill:#ED6C22;}
	.st555{fill:#ADA27F;}
	.st556{fill:#90C258;}
	.st557{fill:#9A901B;}
	.st558{fill:#AB5B17;}
	.st559{fill:#25612B;}
	.st560{fill:#B69462;}
	.st561{fill:#EA731B;}
	.st562{fill:#7E6215;}
	.st563{fill:#C2944B;}
	.st564{fill:#B69233;}
	.st565{fill:#ACC64F;}
	.st566{fill:#F5D6B4;}
	.st567{fill:#92C46C;}
	.st568{fill:#254899;}
	.st569{fill:#EF7723;}
	.st570{fill:#72160D;}
	.st571{fill:#666438;}
	.st572{fill:#C4D65B;}
	.st573{fill:#EB5D1C;}
	.st574{fill:#BF9E06;}
	.st575{fill:#63A6AC;}
	.st576{fill:#ACD6BC;}
	.st577{fill:#EBE444;}
	.st578{fill:#9E5931;}
	.st579{fill:#EDEDA6;}
	.st580{fill:#6DB52D;}
	.st581{fill:#722F16;}
	.st582{fill:#88C05E;}
	.st583{fill:#97C05E;}
	.st584{fill:#DB7030;}
	.st585{fill:#5D644E;}
	.st586{fill:#AACE75;}
	.st587{fill:#5FBEB3;}
	.st588{fill:#A3994C;}
	.st589{fill:#C04D38;}
	.st590{fill:#70B95D;}
	.st591{fill:#674E12;}
	.st592{fill:#6C7C27;}
	.st593{fill:#9D6B21;}
	.st594{fill:#1C1F15;}
	.st595{fill:#CDD87A;}
	.st596{fill:#EE7558;}
	.st597{fill:#BED67B;}
	.st598{fill:#FFD260;}
	.st599{fill:#7C2810;}
	.st600{fill:#B5C16C;}
	.st601{fill:#562129;}
	.st602{fill:#A23816;}
	.st603{fill:#EA6440;}
	.st604{fill:#DD644B;}
	.st605{fill:#2C692D;}
	.st606{fill:#4A6125;}
	.st607{fill:#456AB1;}
	.st608{fill:#4B6FB5;}
	.st609{fill:#3F6BB2;}
	.st610{fill:#3F71B5;}
	.st611{fill:#4271B7;}
	.st612{fill:#4369B0;}
	.st613{fill:#3F66AF;}
	.st614{fill:#4F74B8;}
	.st615{fill:#3E6CB3;}
	.st616{fill:#3D67B0;}
	.st617{fill:#873413;}
	.st618{fill:#EC673A;}
	.st619{fill:#EF7B4B;}
	.st620{fill:#EB7040;}
	.st621{fill:#7E2B10;}
	.st622{fill:#ED6C3E;}
	.st623{fill:#EE7842;}
	.st624{fill:#EE713D;}
	.st625{fill:#458685;}
	.st626{fill:#4C7BBE;}
	.st627{fill:#3D6CB3;}
	.st628{fill:#0F4988;}
	.st629{fill:#AA481D;}
	.st630{fill:#C8462C;}
	.st631{fill:#AFAB15;}
	.st632{fill:#531E0D;}
	.st633{fill:#541F0E;}
	.st634{fill:#D3BC31;}
	.st635{fill:#AC4519;}
	.st636{fill:#416529;}
	.st637{fill:#1B441F;}
	.st638{fill:#6BB864;}
	.st639{fill:#7BBD66;}
	.st640{fill:#89C063;}
	.st641{fill:#7BBC5D;}
	.st642{fill:#68B65A;}
	.st643{fill:#8AC26E;}
	.st644{fill:#65B65C;}
	.st645{fill:#3BA840;}
	.st646{fill:#6CB754;}
	.st647{fill:#91C472;}
	.st648{fill:#EA591D;}
	.st649{fill:#F8AE46;}
	.st650{fill:#E36738;}
	.st651{fill:#E9B132;}
	.st652{fill:#97C232;}
	.st653{fill:#07383B;}
	.st654{fill:#1B6F34;}
	.st655{fill:#96C23F;}
	.st656{fill:#83D0F3;}
	.st657{fill:#5074B8;}
	.st658{fill:#547B2D;}
	.st659{fill:#389C36;}
	.st660{fill:#81BD53;}
	.st661{fill:#41933A;}
	.st662{fill:#90C574;}
	.st663{fill:#79BB5B;}
	.st664{fill:#8CC378;}
	.st665{fill:#35692C;}
	.st666{fill:#A6CD7E;}
	.st667{fill:#1BA29D;}
	.st668{fill:#64B444;}
	.st669{fill:#87BF56;}
	.st670{fill:#69B544;}
	.st671{fill:#8DC04C;}
	.st672{fill:#5EB23C;}
	.st673{fill:#0A736D;}
	.st674{fill:#262516;}
	.st675{fill:#0B5547;}
	.st676{fill:#EE7623;}
	.st677{fill:#4D2B3D;}
	.st678{fill:#FCC450;}
	.st679{fill:#EE7630;}
	.st680{fill:#ED6E20;}
	.st681{fill:#ED6A23;}
	.st682{fill:#FFDC5F;}
	.st683{fill:#FFD262;}
	.st684{fill:#6E4E12;}
	.st685{fill:#F9B65A;}
	.st686{fill:#FABB67;}
	.st687{fill:#DBB898;}
	.st688{fill:#ECAE65;}
	.st689{fill:#EF774F;}
	.st690{fill:#F18B80;}
	.st691{fill:#F07F5F;}
	.st692{fill:#EF796B;}
	.st693{fill:#F29264;}
	.st694{fill:#F18A65;}
	.st695{fill:#F18865;}
	.st696{fill:#F1BA9C;}
	.st697{fill:#F4A073;}
	.st698{fill:#F49F73;}
	.st699{fill:#F7B190;}
	.st700{fill:#F8B483;}
	.st701{fill:#F5A788;}
	.st702{fill:#86BD2E;}
	.st703{fill:#81BB2E;}
	.st704{fill:#8ABE30;}
	.st705{fill:#4680C2;}
	.st706{fill:#5699D3;}
	.st707{fill:#3163AD;}
	.st708{fill:#3365AF;}
	.st709{fill:#198575;}
	.st710{fill:#0B8D88;}
	.st711{fill:#66C0B4;}
	.st712{fill:#6BC3C4;}
	.st713{fill:#45BAB8;}
	.st714{fill:#65C2CB;}
	.st715{fill:#4AB7B5;}
	.st716{fill:#3CAA40;}
	.st717{fill:#93C573;}
	.st718{fill:#F9BD84;}
	.st719{fill:#EB7231;}
	.st720{fill:#E55425;}
	.st721{fill:#5AB138;}
	.st722{fill:#77BB5B;}
	.st723{fill:#74BA61;}
	.st724{fill:#8CC04A;}
	.st725{fill:#24283B;}
	.st726{fill:#E2E8A3;}
	.st727{fill:#101423;}
	.st728{fill:#8B2D24;}
	.st729{fill:#EF7B68;}
	.st730{fill:#8B3322;}
	.st731{fill:#CFA5A3;}
	.st732{fill:#F39A83;}
	.st733{fill:#F49E81;}
	.st734{fill:#298496;}
	.st735{fill:#082219;}
	.st736{fill:#CA5F16;}
	.st737{fill:#874617;}
	.st738{fill:#855C20;}
	.st739{fill:#E7992E;}
	.st740{fill:#D96A33;}
	.st741{fill:#D46430;}
	.st742{fill:#EB6345;}
	.st743{fill:#B49021;}
	.st744{fill:#B29227;}
	.st745{fill:#82BEE9;}
	.st746{fill:#D9DE58;}
	.st747{fill:#10AEA3;}
	.st748{fill:#19757A;}
	.st749{fill:#179C9C;}
	.st750{fill:#7AC9D7;}
	.st751{fill:#6AC4D0;}
	.st752{fill:#92D0D4;}
	.st753{fill:#EE6F59;}
	.st754{fill:#14A691;}
	.st755{fill:#168D6C;}
	.st756{fill:#1E7667;}
	.st757{fill:#94D2D8;}
	.st758{fill:#72C5C6;}
	.st759{fill:#73C7D3;}
	.st760{fill:#8DCCBB;}
	.st761{fill:#7AC3A0;}
	.st762{fill:#2F57A4;}
	.st763{fill:#48521F;}
	.st764{fill:#222315;}
	.st765{fill:#A2C740;}
	.st766{fill:#DFDF43;}
	.st767{fill:#90C361;}
	.st768{fill:#A0CA70;}
	.st769{fill:#103940;}
	.st770{fill:#69AFE1;}
	.st771{fill:#E2E03E;}
	.st772{fill:#99C665;}
	.st773{fill:#5D8F32;}
	.st774{fill:#4472B7;}
	.st775{fill:#3C6CB3;}
	.st776{fill:#2C5AA6;}
	.st777{fill:#69ABDE;}
	.st778{fill:#FBC54A;}
	.st779{fill:#AEA352;}
	.st780{fill:#883A13;}
	.st781{fill:#ED6D23;}
	.st782{fill:#BDB124;}
	.st783{fill:#C15626;}
	.st784{fill:#AEA31D;}
	.st785{fill:#CF9523;}
	.st786{fill:#A65028;}
	.st787{fill:#419644;}
	.st788{fill:#CBC04F;}
	.st789{fill:#3D6DB4;}
	.st790{fill:#4F802F;}
	.st791{fill:#367BBF;}
	.st792{fill:#D6C857;}
	.st793{fill:#AABA32;}
	.st794{fill:#F28F3A;}
	.st795{fill:#383217;}
	.st796{fill:#745B15;}
	.st797{fill:#A86D14;}
	.st798{fill:#A06215;}
	.st799{fill:#FCC54F;}
	.st800{fill:#FCC542;}
	.st801{fill:#E9531A;}
	.st802{fill:#F1854A;}
	.st803{fill:#70621A;}
	.st804{fill:#F0DB34;}
	.st805{fill:#17361D;}
	.st806{fill:#2356A3;}
	.st807{fill:#0E6A85;}
	.st808{fill:#2DB6B7;}
	.st809{fill:#0D5327;}
	.st810{fill:#4CBDC6;}
	.st811{fill:#9CB61F;}
	.st812{fill:#2561A4;}
	.st813{fill:#295CA8;}
	.st814{fill:#A1CA70;}
	.st815{fill:#FEE61F;}
	.st816{fill:#8C3521;}
	.st817{fill:#8797CD;}
	.st818{fill:#FAE151;}
	.st819{fill:#FBF9E8;}
	.st820{fill:#76B72E;}
	.st821{fill:#46AF66;}
	.st822{fill:#888D68;}
	.st823{fill:#4374B9;}
	.st824{fill:#96C11E;}
	.st825{fill:#87CDD9;}
	.st826{fill:#E7E675;}
	.st827{fill:#498932;}
	.st828{fill:#FFCF53;}
	.st829{fill:#CF2A17;}
	.st830{fill:#9EC530;}
	.st831{fill:#E37448;}
	.st832{fill:#EC6442;}
	.st833{fill:#735F18;}
	.st834{fill:#E63918;}
	.st835{fill:#F59E35;}
	.st836{fill:#502710;}
	.st837{fill:#572E10;}
	.st838{fill:#9AC551;}
	.st839{fill:#0E6D31;}
	.st840{fill:#AFCA13;}
	.st841{fill:#DADF64;}
	.st842{fill:#EFF0B6;}
	.st843{fill:#86C170;}
	.st844{fill:#8BC373;}
	.st845{fill:#87C275;}
	.st846{fill:#DDEBCB;}
	.st847{fill:#AE1917;}
	.st848{fill:#9CC430;}
	.st849{fill:#22381C;}
	.st850{fill:#4F2B12;}
	.st851{fill:#E7E88B;}
	.st852{fill:#BACF36;}
	.st853{fill:#8A983A;}
	.st854{fill:#B88458;}
	.st855{fill:#D7E8CA;}
	.st856{fill:#EA9D74;}
	.st857{fill:#B4CD30;}
	.st858{fill:#A16E14;}
	.st859{fill:#E53112;}
	.st860{fill:#F8AF4B;}
	.st861{fill:#F59E57;}
	.st862{fill:#7F5E14;}
	.st863{fill:#FAB749;}
	.st864{fill:#7D4B12;}
	.st865{fill:#281F36;}
	.st866{fill:#FCC461;}
	.st867{fill:#F9DB94;}
	.st868{fill:#B0CB2C;}
	.st869{fill:#EF7928;}
	.st870{fill:#846515;}
	.st871{fill:#FCC666;}
	.st872{fill:#6EC4C5;}
	.st873{fill:#ED6A1F;}
	.st874{fill:#F3A68C;}
	.st875{fill:#F6A43E;}
	.st876{fill:#9B2415;}
	.st877{fill:#F49963;}
	.st878{fill:#2B4C75;}
	.st879{fill:#DDC138;}
	.st880{fill:#D9DB73;}
	.st881{fill:#CBBBA7;}
	.st882{fill:#2A9A38;}
	.st883{fill:#11642E;}
	.st884{fill:#85BF65;}
	.st885{fill:#A3C417;}
	.st886{fill:#19A78C;}
	.st887{fill:#79BD74;}
	.st888{fill:#97CA90;}
	.st889{fill:#3A9536;}
	.st890{fill:#BFD132;}
	.st891{fill:#542911;}
	.st892{fill:#F0EB82;}
	.st893{fill:#4C6D2A;}
	.st894{fill:#FFD96F;}
	.st895{fill:#FCD052;}
	.st896{fill:#FCC869;}
	.st897{fill:#E4DB27;}
	.st898{fill:#A89D17;}
	.st899{fill:#5B95D0;}
	.st900{fill:#2E57A4;}
	.st901{fill:#325CA8;}
	.st902{fill:#FBBD46;}
	.st903{fill:#3A74B9;}
	.st904{fill:#6FC3C0;}
	.st905{fill:#50AE32;}
	.st906{fill:#4EA53C;}
	.st907{fill:#DA6018;}
	.st908{fill:#FECC54;}
	.st909{fill:#F4942F;}
	.st910{fill:#CCD960;}
	.st911{fill:#2F4E22;}
	.st912{fill:#F1B261;}
	.st913{fill:#F7A854;}
	.st914{fill:#E7E134;}
	.st915{fill:#EE7724;}
	.st916{fill:#FEDA7D;}
	.st917{fill:#D4DB49;}
	.st918{fill:#99BD1F;}
	.st919{fill:#516826;}
	.st920{fill:#ED6B1C;}
	.st921{fill:#982315;}
	.st922{fill:#EF7A5A;}
	.st923{fill:#ED6B58;}
	.st924{fill:#AACA44;}
	.st925{fill:#2D8C36;}
	.st926{fill:#388534;}
	.st927{fill:#B4CF56;}
	.st928{fill:#19232E;}
	.st929{fill:#0F1213;}
	.st930{fill:#AD5C17;}
	.st931{fill:#BE9C68;}
	.st932{fill:#D0DA59;}
	.st933{fill:#99C444;}
	.st934{fill:#3A2B17;}
	.st935{fill:#0F5D99;}
	.st936{fill:#593418;}
	.st937{fill:#348434;}
	.st938{fill:#FEDCAE;}
	.st939{fill:#4A792E;}
	.st940{fill:#EC6349;}
	.st941{fill:#E63417;}
	.st942{fill:#06978C;}
	.st943{fill:#50BCBF;}
	.st944{fill:#FED15C;}
	.st945{fill:#DEDF42;}
	.st946{fill:#B1CC2B;}
	.st947{fill:#4F8230;}
	.st948{fill:#173F1E;}
	.st949{fill:#BB5820;}
	.st950{fill:#4F9F34;}
	.st951{fill:#519860;}
	.st952{fill:#F3E960;}
	.st953{fill:#BDD252;}
	.st954{fill:#8D9724;}
	.st955{fill:#FDC761;}
	.st956{fill:#F3EDD4;}
	.st957{fill:#3B72B8;}
	.st958{fill:#B5E0F0;}
	.st959{fill:#5D1D0E;}
	.st960{fill:#3A6CB4;}
	.st961{fill:#E3D255;}
	.st962{fill:#51BEED;}
	.st963{fill:#2C1D11;}
	.st964{fill:#90C03D;}
	.st965{fill:#EE7226;}
	.st966{fill:#D32B16;}
	.st967{fill:#A1C62F;}
	.st968{fill:#A1CA71;}
	.st969{fill:#ED6D20;}
	.st970{fill:#EE7159;}
	.st971{fill:#FEDE82;}
	.st972{fill:#E6E247;}
	.st973{fill:#266F30;}
	.st974{fill:#6EB52C;}
	.st975{fill:#C4D76D;}
	.st976{fill:#E2DA35;}
	.st977{fill:#3A9C36;}
	.st978{fill:#F7B857;}
	.st979{fill:#6BC5D3;}
	.st980{fill:#6FB4E4;}
	.st981{fill:#F0CFA2;}
	.st982{fill:#F0C978;}
	.st983{fill:#461C0F;}
	.st984{fill:#D05915;}
	.st985{fill:#E9651E;}
	.st986{fill:#155A4B;}
	.st987{fill:#F1E637;}
	.st988{fill:#F49A43;}
	.st989{fill:#93C137;}
	.st990{fill:#A7C829;}
	.st991{fill:#396A2C;}
	.st992{fill:#E2E045;}
	.st993{fill:#199F93;}
	.st994{fill:#3D77BB;}
	.st995{fill:#7C4D31;}
	.st996{fill:#BB6128;}
	.st997{fill:#F9C967;}
	.st998{fill:#224B9B;}
	.st999{fill:#BAE2F1;}
	.st1000{fill:#EB6119;}
	.st1001{fill:#F9B24D;}
	.st1002{fill:#FBBF53;}
	.st1003{fill:#ED6F21;}
	.st1004{fill:#FCC150;}
	.st1005{fill:#987214;}
	.st1006{fill:#EFC272;}
	.st1007{fill:#F4983F;}
	.st1008{fill:#D0DB67;}
	.st1009{fill:#E2E368;}
	.st1010{fill:#CBD74C;}
	.st1011{fill:#CAD74E;}
	.st1012{fill:#4E8FCC;}
	.st1013{fill:#5BBFC2;}
	.st1014{fill:#646637;}
	.st1015{fill:#56BEC0;}
	.st1016{fill:#EE7625;}
	.st1017{fill:#77C7CC;}
	.st1018{fill:#49A05C;}
	.st1019{fill:#4F9032;}
	.st1020{fill:#E3E03A;}
	.st1021{fill:#2F9437;}
	.st1022{fill:#475A78;}
	.st1023{fill:#96831C;}
	.st1024{fill:#F5DF87;}
	.st1025{fill:#376AB2;}
	.st1026{fill:#FECC53;}
	.st1027{fill:#FFDA70;}
	.st1028{fill:#7C6C1A;}
	.st1029{fill:#DD6216;}
	.st1030{fill:#F6A55A;}
	.st1031{fill:#C1591A;}
	.st1032{fill:#626673;}
	.st1033{fill:#F5BE85;}
	.st1034{fill:#C8CE4A;}
	.st1035{fill:#6D5879;}
	.st1036{fill:#FBC372;}
	.st1037{fill:#E5C3C5;}
	.st1038{fill:#2E2F45;}
	.st1039{fill:#FFD354;}
	.st1040{fill:#44454A;}
	.st1041{fill:#FED17A;}
	.st1042{fill:#E79965;}
	.st1043{fill:#F49D7C;}
	.st1044{fill:#FFD967;}
	.st1045{fill:#EF7B21;}
	.st1046{fill:#E3621F;}
	.st1047{fill:#EDE53D;}
	.st1048{fill:#EC653A;}
	.st1049{fill:#91C02D;}
	.st1050{fill:#B4CD1E;}
	.st1051{fill:#ECE97B;}
	.st1052{fill:#A0C51F;}
	.st1053{fill:#EE7455;}
	.st1054{fill:#D5DA32;}
	.st1055{fill:#EE7320;}
	.st1056{fill:#EC6420;}
	.st1057{fill:#F9B981;}
	.st1058{fill:#F5A671;}
	.st1059{fill:#F5A67E;}
	.st1060{fill:#F8B271;}
	.st1061{fill:#9CC545;}
	.st1062{fill:#58A3DA;}
	.st1063{fill:#9AC54B;}
	.st1064{fill:#E6E136;}
	.st1065{fill:#90C03B;}
	.st1066{fill:#F08263;}
	.st1067{fill:#E9E227;}
	.st1068{fill:#166F31;}
	.st1069{fill:#4FAE32;}
	.st1070{fill:#E7F2E4;}
	.st1071{fill:#DEEDDE;}
	.st1072{fill:#101510;}
	.st1073{fill:#7B3310;}
	.st1074{fill:#E6D569;}
	.st1075{fill:#FDCB5F;}
	.st1076{fill:#FAB952;}
	.st1077{fill:#E26D1A;}
	.st1078{fill:#3F4D5B;}
	.st1079{fill:#7D441D;}
	.st1080{fill:#C35C3D;}
	.st1081{fill:#61AFE2;}
	.st1082{fill:#59AFE3;}
	.st1083{fill:#6FB9E7;}
	.st1084{fill:#54BAEB;}
	.st1085{fill:#55C4F1;}
	.st1086{fill:#A3C84A;}
	.st1087{fill:#F1CD5C;}
	.st1088{fill:#CCDD8A;}
	.st1089{fill:#EB621D;}
	.st1090{fill:#FFD257;}
	.st1091{fill:#FDCC64;}
	.st1092{fill:#FDCA67;}
	.st1093{fill:#FCC46F;}
	.st1094{fill:#FABA69;}
	.st1095{fill:#FCC34A;}
	.st1096{fill:#B3CC06;}
	.st1097{fill:#CCD846;}
	.st1098{fill:#4778BC;}
	.st1099{fill:#ACC926;}
	.st1100{fill:#93C23D;}
	.st1101{fill:#B1CC3C;}
	.st1102{fill:#DEDF3F;}
	.st1103{fill:#EC6421;}
	.st1104{fill:none;stroke:#E30613;stroke-width:0.4514;stroke-miterlimit:10;}
	.st1105{fill:#717173;}
	.st1106{fill:#707172;}
	.st1107{fill:#3AAA35;}
	.st1108{fill:#FAC212;}
	.st1109{fill:#A2C62F;}
	.st1110{fill:#1E8DCE;}
	.st1111{fill:#2D8636;}
	.st1112{fill:#328837;}
	.st1113{fill:#ABCA4A;}
	.st1114{fill:#FEEFC3;}
	.st1115{fill:#2C8636;}
	.st1116{fill:#F1F7EB;}
	.st1117{fill:#95C11F;}
	.st1118{fill:none;stroke:#006633;stroke-width:7;stroke-linecap:round;stroke-miterlimit:10;}
	.st1119{fill:#951B81;}
	.st1120{fill:#5C2483;}
	.st1121{fill:#FFFFFF;stroke:#5C2483;stroke-width:0.4131;stroke-miterlimit:10;}
	.st1122{fill:#FFFFFF;stroke:#000000;stroke-width:0.0874;stroke-miterlimit:10;}
	.st1123{fill:#3A3A3A;}
	.st1124{fill:#39393A;}
	.st1125{fill:#3A3A3B;}
	.st1126{fill:#39383A;}
	.st1127{fill:#393939;}
	.st1128{fill:#9E1981;}
	.st1129{fill:#312783;}
	.st1130{fill:url(#SVGID_1_);}
	.st1131{fill:#272626;}
	.st1132{fill:#E30613;}
	.st1133{fill:#EE7203;}
	.st1134{fill:#FFD618;}
	.st1135{fill:#F6A200;}
</style>
<g>
	<g>
		<g>
			<g>
				<g>
					<path class="st1129" d="M36.2,38.61c-0.21,0.04-0.44-0.06-0.55-0.28l-1.56-3.07l-2.22,1.91l0.13,1.03
						c0.02,0.13-0.03,0.25-0.12,0.34c-0.06,0.06-0.13,0.1-0.21,0.11c-0.17,0.03-0.34-0.04-0.43-0.21l-0.37-0.73l-0.35,0.32
						c-0.03,0.03-0.06,0.04-0.1,0.05c-0.07,0.01-0.14-0.01-0.18-0.06c-0.07-0.08-0.07-0.21,0.02-0.28l0.35-0.31l-0.72-0.34
						c-0.23-0.13-0.27-0.46-0.08-0.64c0.06-0.06,0.13-0.09,0.21-0.11c0.04-0.01,0.09-0.01,0.13,0l1.02,0.16l1.87-2.28l-3.03-1.64
						c-0.31-0.17-0.36-0.58-0.11-0.83c0.08-0.07,0.17-0.12,0.27-0.14c0.07-0.01,0.14-0.01,0.21,0.01l1.51,0.37l0.08-0.2
						c0.03-0.09,0.11-0.15,0.2-0.16c0.04-0.01,0.09,0,0.14,0.01c0.13,0.05,0.2,0.2,0.15,0.34l-0.05,0.14l0.61,0.15l0.1-0.25
						c0.03-0.09,0.11-0.15,0.2-0.16c0.04-0.01,0.09,0,0.14,0.01c0.13,0.05,0.2,0.2,0.15,0.34l-0.07,0.19l1.11,0.27l1.95-1.9
						c0,0,0.65-0.6,1.15-0.69c0.15-0.03,0.29-0.01,0.39,0.09c0.58,0.53-0.52,1.69-0.52,1.69l-1.93,1.88l0.21,0.97l0.37-0.1
						c0.01,0,0.01,0,0.02,0c0.13-0.02,0.26,0.06,0.3,0.19c0.04,0.14-0.05,0.28-0.19,0.32l-0.39,0.1l0.13,0.61l0.22-0.06
						c0.01,0,0.01,0,0.02,0c0.13-0.02,0.26,0.06,0.3,0.19c0.04,0.14-0.05,0.28-0.19,0.32l-0.24,0.06l0.37,1.69
						c0.04,0.17-0.02,0.36-0.14,0.48C36.39,38.55,36.3,38.59,36.2,38.61"/>
					<path class="st1129" d="M38.14,30.14c-0.45-0.41-1.54,0.61-1.54,0.61l-1.95,1.9l-1.11-0.27l0.07-0.19
						c0.05-0.13-0.02-0.28-0.15-0.34c-0.13-0.05-0.28,0.02-0.34,0.15l-0.1,0.25l-0.61-0.15l0.05-0.14c0.05-0.13-0.02-0.28-0.15-0.34
						c-0.13-0.05-0.28,0.02-0.34,0.15l-0.08,0.2l-1.51-0.37c-0.17-0.04-0.36,0.01-0.48,0.13c-0.25,0.24-0.19,0.66,0.11,0.83
						l3.03,1.64l-1.87,2.28l-1.02-0.16c-0.13-0.02-0.25,0.02-0.35,0.11c-0.19,0.19-0.15,0.51,0.08,0.64l0.72,0.34l-0.35,0.31
						c-0.08,0.07-0.09,0.2-0.02,0.28c0.07,0.08,0.2,0.09,0.28,0.02l0.35-0.32l0.37,0.73c0.13,0.24,0.45,0.29,0.64,0.1
						c0.09-0.09,0.14-0.22,0.12-0.34l-0.13-1.03l2.22-1.91l1.56,3.07c0.16,0.31,0.57,0.38,0.82,0.14c0.13-0.12,0.18-0.31,0.14-0.48
						l-0.37-1.69l0.24-0.06c0.14-0.04,0.22-0.18,0.19-0.32c-0.04-0.14-0.18-0.22-0.32-0.19l-0.22,0.06l-0.13-0.61l0.39-0.1
						c0.14-0.04,0.22-0.18,0.19-0.32c-0.04-0.14-0.18-0.22-0.32-0.19l-0.37,0.1l-0.21-0.97l1.93-1.88
						C37.61,31.83,38.72,30.68,38.14,30.14z"/>
					<path class="st1129" d="M31.23,36.85l-1.05,0.96c-0.08,0.07-0.08,0.19-0.01,0.27l0.02,0.02c0.07,0.08,0.19,0.08,0.27,0.01
						l1.05-0.96c0.08-0.07,0.08-0.19,0.01-0.27l-0.02-0.02C31.43,36.78,31.31,36.77,31.23,36.85z"/>
					<path class="st1129" d="M33.05,34.2l0.45-0.44l-2.63-1.1c0,0-0.28,0.21-0.23,0.23C30.68,32.92,33.05,34.2,33.05,34.2z"/>
					<polygon class="st1129" points="34.09,35.26 34.54,34.82 35.42,37.16 35.17,37.4 					"/>
				</g>
			</g>
			<g>
				<g>
					<path class="st1129" d="M40.66,3C19.59,3,2.5,20.09,2.5,41.16c0,11.5,5.09,21.81,13.14,28.81l7.35,7.29l6.94-7.03l10.86-10.99
						l12.34,12.2l5.6,5.53l6.77-6.86c8.15-7,13.31-17.38,13.31-28.96C78.82,20.09,61.73,3,40.66,3z M64.13,52.07
						c-0.19-0.22-0.59-0.64-1.14-1.19v-9.9H57.8v4.81c-3.75-3.65-8.01-7.79-9.52-9.42c-3.64-3.93-6.31-0.87-6.31-0.87l-20.3,21.75
						l9.76-12.09c0,0-0.55-0.55-4.37-4.49c-2.39-2.46-4.73-0.37-4.73-0.37l-6.82,6.95c-0.47-1.95-0.73-3.98-0.73-6.08
						c0-14.29,11.59-25.88,25.88-25.88c14.29,0,25.88,11.59,25.88,25.88C66.54,45.06,65.68,48.75,64.13,52.07z"/>
				</g>
			</g>
			<g>
				<g>
					<path class="st1129" d="M44.23,91.12c-1.2,0.34-2.36,0.18-3.49-0.24c-0.72-0.27-1.41-0.61-2.15-0.83
						c-1.05-0.31-2.12-0.52-3.22-0.36l1.75,1.75c0.74-0.3,1.51-0.22,2.3-0.05c0.64,0.14,1.23,0.42,1.85,0.62
						c0.58,0.19,1.17,0.35,1.8,0.26c0.15-0.02,0.29-0.07,0.43-0.12l1.23-1.23C44.56,90.98,44.41,91.07,44.23,91.12z"/>
				</g>
				<g>
					<path class="st1129" d="M42.89,92.6c-0.8,0.23-1.57,0.12-2.32-0.16c-0.48-0.18-0.94-0.41-1.43-0.56
						c-0.61-0.18-1.22-0.31-1.84-0.28l1.37,1.37c0.37-0.09,0.76-0.05,1.15,0.04c0.38,0.09,0.74,0.25,1.11,0.37
						c0.35,0.11,0.7,0.21,1.08,0.15c0.05-0.01,0.09-0.03,0.13-0.04l1-1C43.05,92.53,42.98,92.58,42.89,92.6z"/>
				</g>
				<g>
					<path class="st1129" d="M40.5,93.65c-0.29-0.11-0.56-0.24-0.86-0.33c-0.26-0.08-0.53-0.14-0.8-0.16l0.36,0.36
						c0.71,0.71,1.81,0.78,2.61,0.24C41.37,93.87,40.93,93.81,40.5,93.65z"/>
				</g>
				<g>
					<path class="st1129" d="M48.59,84.25l-6.14-2.71c-0.4-0.15-0.77-0.32-1.21-0.37l-0.58,4.09l-0.51-4.11
						c-0.47,0.05-0.79,0.2-1.28,0.39l-6.14,2.71c-0.98,0.55-3.5-0.75-2.7,0.05l5.17,5.22c1.21-0.63,2.5-0.53,3.8-0.24
						c0.96,0.21,1.85,0.63,2.78,0.93c0.88,0.29,1.76,0.53,2.71,0.39c0.26-0.04,0.51-0.12,0.74-0.21l6.07-6.11
						C52.12,83.48,49.57,84.81,48.59,84.25z"/>
				</g>
			</g>
			<path class="st1129" d="M27.74,82.01c0.51-0.51,12.4-20.73,12.4-20.73v15.91L27.74,82.01z"/>
			<path class="st1129" d="M53.67,82.01c-0.51-0.51-12.4-20.73-12.4-20.73v15.91L53.67,82.01z"/>
		</g>
	</g>
	<g>
		<path class="st1135" d="M87.97,67.42c0.33-9.37,1.53-18.65,3.06-27.89c0.27-1.61,0.69-3.19,0.15-4.94
			c-0.4-1.27,0.25-2.75,0.59-4.11c0.87-3.41,1.8-6.8,2.66-10.2c0.38-1.5,1.47-2.01,2.81-2.18c0.79-0.1,1.59-0.04,2.37,0.22
			c1.74,0.56,2.4,1.58,2.1,3.35c-1.02,5.99-2.06,11.98-3.09,17.96c-1.85,10.77-3.52,21.56-2.99,32.55c0.06,1.15,0.18,2.32,0.41,3.45
			c0.25,1.28,1.24,1.67,2.35,1c0.73-0.44,1.26-1.1,1.75-1.79c5.67-7.94,10.13-16.56,14.07-25.46c3.51-7.93,6.75-15.97,9.06-24.35
			c0.78-2.82,1.44-5.66,1.73-8.57c0.04-0.44,0.1-0.88,0.06-1.32c-0.07-0.92-0.57-1.17-1.25-0.55c-0.97,0.89-1.82,1.9-2.72,2.87
			c-1.27,1.37-2.82,1.9-4.66,1.57c-0.6-0.11-1.19-0.26-1.67-0.63c-0.74-0.58-1.31-1.37-0.74-2.27c2.34-3.77,4.9-7.35,9.43-8.78
			c1.36-0.43,2.77-0.5,4.16-0.23c3.12,0.6,4.72,2.68,4.89,6.2c0.19,3.89-0.63,7.65-1.66,11.35c-5.08,18.3-12.39,35.6-23.08,51.37
			c-1.99,2.94-4.42,5.48-7.58,7.21c-1.57,0.86-3.25,1.31-5.04,1.39c-2.92,0.12-4.85-1.16-5.9-3.92c-0.97-2.55-1.15-5.22-1.27-7.9
			C87.9,71.03,87.97,69.22,87.97,67.42z"/>
		<path class="st1129" d="M468.25,51.74c-0.14,4.43-0.61,8.87-0.1,13.3c0.12,1.03,0.31,2.05,0.44,3.08
			c0.16,1.24,0.78,1.97,2.08,2.05c0.78,0.05,1.55,0.19,1.78,1.11c0.25,0.98-0.35,1.58-1.03,2.12c-1.8,1.43-3.87,1.85-6.1,1.56
			c-1.76-0.23-2.68-1.48-3.3-2.99c-1.11-2.7-1.34-5.59-1.51-8.46c-0.2-3.35-0.15-6.72-0.08-10.08c0.01-0.6-0.03-1.2-0.2-1.78
			c-0.11-0.38-0.17-0.83-0.63-0.94c-0.46-0.11-0.73,0.25-0.98,0.56c-0.62,0.79-1.1,1.67-1.52,2.57c-3.71,7.94-6.67,16.17-9.57,24.42
			c-0.88,2.51-2.49,3.91-4.97,4.49c-0.38,0.09-0.79,0.14-1.19,0.13c-1.64-0.04-2.23-0.68-2.14-2.32c0.14-2.44,0.71-4.82,1.16-7.22
			c2.03-10.92,4.04-21.84,6.61-32.65c2.07-8.75,4.62-17.37,6.89-26.06c0.76-2.9,1.44-5.81,2.27-8.69c0.83-2.88,3-3.03,4.84-2.61
			c2.28,0.51,3.11,1.9,2.52,4.16c-0.61,2.36-3.63,12.82-3.92,13.8c-2,6.82-3.91,13.67-5.6,20.58c-0.18,0.73-0.68,1.76,0.25,2.14
			c0.84,0.34,1.21-0.7,1.61-1.3c1.03-1.53,2.08-3.03,3.32-4.4c1.69-1.87,3.8-2.56,6.26-2.33c1.48,0.14,2.41,0.95,2.87,2.34
			c0.31,0.93,0.34,1.89,0.3,2.85C468.53,44.71,468.39,48.23,468.25,51.74z"/>
		<path class="st1129" d="M366.41,74.96c0.03-5.94,1.04-11.77,2.02-17.6c1.22-7.25,2.7-14.45,4.32-21.62
			c0.24-1.07,0.32-2.13-0.29-3.14c-0.39-0.66-0.35-1.35-0.18-2.08c1.98-8.28,5.33-16.06,8.79-23.79c1.14-2.54,6.27-3.23,8.22-1.22
			c0.83,0.85,0.72,1.82,0.43,2.8c-0.59,1.95-1.19,3.9-1.85,5.82c-4.96,14.46-8.7,29.24-11.33,44.3c-0.97,5.58-1.99,11.19-1.51,16.92
			c0.07,0.8,0.1,1.6,0.24,2.38c0.15,0.87,0.41,1.63,1.43,2.02c1.01,0.39,1.2,1.48,0.63,2.42c-1.17,1.95-5.09,3.64-7.27,3.11
			c-1.27-0.31-2.05-1.18-2.57-2.33c-0.66-1.44-0.97-2.96-1.07-4.52C366.35,77.28,366.41,76.12,366.41,74.96z"/>
		<path class="st1129" d="M421.59,83.69c-1.53-0.08-2.74-0.66-3.72-1.67c-1.01-1.04-0.81-2.29,0.51-2.93
			c1.43-0.7,2.94-1.26,4.38-1.94c1.77-0.84,3.48-1.81,5-3.06c1.47-1.22,1.35-1.98-0.38-2.75c-1.86-0.83-3.76-1.57-5.43-2.77
			c-3.81-2.72-4.72-5.96-2.84-10.24c1.36-3.07,3.36-5.72,5.59-8.18c4.12-4.54,8.56-8.73,13.74-12.08c1.86-1.2,3.92-0.76,5.28,0.99
			c0.71,0.92,0.78,1.83-0.03,2.71c-1.6,1.73-3.21,3.46-4.84,5.16c-0.53,0.55-1.18,0.96-2,0.96c-0.52,0-0.92,0.27-1.28,0.59
			c-3.7,3.28-7.07,6.84-9.35,11.29c-0.25,0.49-0.46,1.02-0.62,1.55c-0.71,2.3-0.12,3.55,2.07,4.49c2.09,0.89,4.2,1.76,6.28,2.68
			c1.3,0.57,2.42,1.41,3.33,2.49c1.34,1.58,1.35,3.17,0.04,4.77c-0.43,0.52-0.92,1.01-1.46,1.41c-4.02,2.98-8.44,5.16-13.31,6.37
			C422.21,83.61,421.85,83.65,421.59,83.69z"/>
		<path class="st1135" d="M148.01,49.89c-0.83,0.02-1.96-0.29-2.81-1.15c-0.7-0.72-1.24-0.5-1.83,0.04c-1.5,1.36-2.64,3.01-3.6,4.76
			c-2.94,5.39-5,11.14-6.72,17.02c-0.53,1.8-1.01,3.62-1.61,5.4c-0.92,2.71-3.4,3.88-6.13,3.01c-1.89-0.6-2.57-1.73-2.3-3.88
			c0.57-4.48,1.35-8.93,2.21-13.36c0.69-3.57,1.19-7.17,2.06-10.71c0.08-0.31,0.16-0.62,0.26-0.92c0.94-2.79,3.02-3.68,5.58-2.16
			c1.17,0.7,1.7,0.43,2.38-0.55c1.85-2.68,4.22-4.68,7.49-5.41c3.53-0.78,6.76,0.79,8.1,3.94
			C152.11,48.28,150.97,49.95,148.01,49.89z"/>
		<path class="st1129" d="M352.9,71.88c0.11-4.42,1.1-8.71,2.03-13c0.94-4.33,1.91-8.66,3.21-12.9c0.92-2.99,4.76-4.02,7.08-1.9
			c0.69,0.63,0.65,1.38,0.44,2.21c-1.29,5.27-2.6,10.54-3.81,15.83c-0.75,3.31-1.32,6.66-1.58,10.06c-0.08,1.08,0.3,1.81,1.19,2.41
			c1.69,1.14,1.72,2.19-0.01,3.3c-1.9,1.22-4.02,1.37-6.08,0.5c-1.91-0.81-2.32-2.61-2.47-4.46
			C352.85,73.24,352.9,72.56,352.9,71.88z"/>
		<path class="st1129" d="M359.83,38.54c0.47-3.6,1.87-6.93,4.62-9.5c1.54-1.45,3.59-1.47,5.54-0.73c1.11,0.42,1.57,1.42,1.18,2.53
			c-0.56,1.62-0.96,3.41-1.95,4.72c-1.07,1.42-1.73,2.95-2.54,4.47c-1.09,2.05-4.46,2.36-6.17,0.75
			C359.89,40.2,359.92,39.43,359.83,38.54z"/>
		<g>
			<path class="st1135" d="M230.39,74.81c-0.83-0.37-1.72-0.3-2.6-0.34c-1.51-0.06-1.95-0.55-1.81-2.02
				c0.09-0.95,0.24-1.9,0.38-2.85c0.79-5.22,2.02-10.35,2.98-15.54c0.5-2.71,1.14-5.41,0.97-8.2c-0.12-1.91-0.76-3.56-2.44-4.71
				c-2.41-1.65-4.75-1.28-7.09,0.09c-2.07,1.22-3.99,2.67-5.76,4.3c-1.47,1.36-2.87,2.79-4.3,4.18c-0.26,0.25-0.54,0.55-0.93,0.46
				c-0.38-0.08-0.41-0.45-0.41-0.77c-0.02-3.96-5.2-5.28-7.91-2.98c-1.13,0.97-2.09,2.09-3.02,3.24c-0.37,0.47-0.73,0.96-1.28,1.25
				c-0.38,0.21-0.78,0.48-1.22,0.18c-0.41-0.27-0.3-0.71-0.26-1.1c0.12-1.11,0.28-2.22,0.38-3.34c0.76-8.09-5.33-12.37-11.52-11.36
				c-2.75,0.45-5.37,1.21-7.95,2.18c-1.15,0.43-2.28,0.65-3.51,0.36c-1.36-0.32-2.69-0.1-4,0.39c-1.47,0.56-2.81,1.34-4.11,2.21
				c-0.8,0.53-1.6,1.06-1.94,2.05c-0.16,0.46-0.49,0.55-0.96,0.43c-1.4-0.37-2.59,0.12-3.67,0.99c-1.55,1.24-2.74,2.79-3.81,4.44
				c-3.38,5.17-6.11,10.68-8.26,16.46c-1.19,3.19-2.14,6.45-2.43,9.86c-0.44,5.21,3.25,8.61,8.44,7.87
				c2.53-0.36,4.58-1.62,6.47-3.19c5.81-4.84,9.99-10.97,13.59-17.53c2.95-5.38,5.51-10.92,5.95-17.19
				c0.07-0.95,0.64-1.53,1.48-1.87c2.23-0.92,4.49-1.67,6.94-1.71c2.14-0.03,2.62,0.4,2.69,2.53c0.08,2.51-0.46,4.93-1.09,7.33
				c-1.32,5.03-3.26,9.86-4.79,14.82c-0.85,2.75-1.73,5.49-2.25,8.32c-0.3,1.59-0.26,3.12,1.16,4.27c2.03,1.64,4.91,1.51,6.77-0.31
				c0.83-0.82,1.48-1.78,2.07-2.78c0.91-1.55,8.03-22.94,10.56-22.62c2.33,0.3,0.64,5.03,0.27,6.19c-0.69,2.17-1.38,3.75-2.19,6.38
				c-0.58,1.86-1.21,3.7-1.83,5.54c-0.15,0.46-0.31,0.93-0.26,1.41c0.18,1.79,3.16,1.91,4.37,1.34c2.53-1.19,4.03-3.94,5.42-6.21
				c1.69-2.77,3.26-5.67,5.11-8.34c1.74-2.52,3.73-4.9,5.82-7.14c1.19-1.27,2.4-0.97,2.99,0.68c0.29,0.81,0.3,1.65,0.13,2.48
				c-0.35,1.72-0.75,3.44-1.07,5.16c-0.69,3.65-1.57,7.27-1.68,11c0,0.6-0.05,1.2,0.01,1.8c0.57,6.13,6.58,9.21,11.79,6.03
				c0.85-0.52,1.59-1.14,1.46-2.27C232.1,75.6,231.23,75.19,230.39,74.81z M170.37,48.13c-0.7,2.3-1.68,4.49-2.73,6.64
				c-3.33,6.83-7.32,13.21-12.83,18.53c-0.54,0.52-1.14,1-1.76,1.44c-0.34,0.24-0.75,0.59-1.2,0.34c-0.49-0.28-0.39-0.83-0.41-1.35
				c0.37-3.15,1.39-6.18,2.58-9.15c1.29-3.23,2.87-6.32,4.48-9.41c0.55-1.06,1.35-1.57,2.55-1.67c2.07-0.16,2.59-0.63,3.15-2.65
				c0.33-1.19,0.55-2.41,0.86-3.61c0.24-0.92,0.74-1.27,1.67-0.72c0.81,0.48,1.69,0.62,2.65,0.43
				C170.46,46.75,170.7,47.03,170.37,48.13z"/>
			<path class="st1129" d="M349.4,7.83c-2.45-0.86-5.01-0.98-7.58-0.94c-2.92,0.1-5.83,0.38-8.7,0.91
				c-6.98,1.29-13.8,3.1-20.28,6.05c-2.33,1.06-4.62,2.23-6.44,4.1c-1.23,1.26-1.78,2.71-1.17,4.48c0.78,2.28,2.46,3.44,5.16,3.44
				c2.54,0.01,3.44-1.09,2.86-3.52c-0.12-0.49-0.14-0.87,0.32-1.14c1.94-1.13,3.97-2.07,6.11-2.74c0.87-0.27,1.23,0.16,0.92,1.03
				c-0.86,2.39-1.12,4.9-1.61,7.36c-0.28,1.39,0.32,2.7,0.02,4.02c-0.84,3.66-1.74,7.31-2.62,10.96c-0.24,1.01-0.78,1.79-1.67,2.39
				c-1.36,0.91-2.65,1.93-4.01,2.85c-1.32,0.9-2.28,2.01-1.88,3.69c0.44,1.84,1.47,3.34,3.42,3.81c0.93,0.22,1,0.56,0.84,1.39
				c-0.94,4.82-1.93,9.64-2.56,14.52c-0.42,3.22-0.74,6.45-0.12,9.67c0.34,1.75,1.22,3.2,3.03,3.68c1.92,0.5,3.74,0.16,5.21-1.32
				c1-1.01,1.04-1.66,0.08-2.67c-0.62-0.65-0.96-1.38-0.99-2.24c-0.04-1.08-0.12-2.17,0-3.23c0.81-6.79,2.11-13.5,3.62-20.17
				c0.43-1.93,1.64-3.25,3.52-3.93c1.13-0.41,2.24-0.87,3.36-1.28c4.42-1.61,8.89-2.92,13.68-2.61c3.06,0.2,4.18,1.58,3.86,4.61
				c-0.35,3.37-1.49,6.46-3.12,9.37c-4.76,8.48-11.33,15.34-19.1,21.09c-4.54,3.36-9.46,5.97-15.13,6.88
				c-2.11,0.34-2.11,0.33-2.86-1.67c-0.68-1.79-3.01-3.03-4.67-2.47c-1.62,0.54-2.11,1.93-1.49,4.21c0.9,3.3,3.54,5.32,7.38,5.64
				c4.59,0.37,8.91-0.69,13.01-2.64c11.94-5.68,21.06-14.48,28.08-25.57c2.5-3.95,4.32-8.16,4.73-12.93
				c0.49-5.67-2.4-10.6-7.61-12.55c-2.13-0.8-4.35-1.01-6.61-0.93c-0.84,0.03-1.69,0.01-2.5-0.19c-0.89-0.22-1.1-0.78-0.52-1.49
				c0.45-0.55,1-1.03,1.56-1.49c3.89-3.21,7.75-6.45,11.3-10.03c2.25-2.28,4.47-4.59,5.81-7.57C356.12,14.01,354.19,9.51,349.4,7.83
				z M347.38,15.68c-0.83,1.66-2.1,3.02-3.36,4.35c-4.67,4.91-10.01,9.06-15.17,13.42c-0.54,0.45-1.19,0.79-1.87,0.38
				c-0.72-0.43-0.54-1.18-0.39-1.85c0.77-3.39,1.51-6.79,1.82-10.26c0.16-1.84,0.26-3.67-1.96-4.49c-0.21-0.08-0.44-0.27-0.34-0.55
				c0.11-0.34,0.42-0.46,0.74-0.53c2.14-0.52,4.26-1.09,6.41-1.53c3.14-0.65,6.3-1.08,9.77-1.09c0.98,0.03,2.23-0.11,3.45,0.2
				C347.61,14.03,347.91,14.62,347.38,15.68z"/>
			<path class="st1135" d="M288.53,66.16c-1.4-0.11-2-0.86-1.77-2.24c0.14-0.83,0.37-1.64,0.56-2.45c0.77-3.3,1.82-6.55,2.01-9.97
				c0-0.2,0-0.4,0-0.6c-0.02-2.22-1.06-3.84-2.99-4.82c-1.89-0.96-3.55-0.26-5.09,0.97c-1.26,1-2.41,2.09-3.44,3.33
				c-1,1.19-2.04,2.36-3.08,3.51c-0.23,0.25-0.55,0.59-0.92,0.4c-0.37-0.2-0.25-0.64-0.21-0.99c0.14-1.31,0.4-2.6,0.35-3.94
				c-0.18-5.08-3.81-8.42-8.64-7.9c-0.95,0.1-1.91,0.25-2.83,0.5c-3.28,0.86-6.52,1.7-9.99,1.67c-2.48-0.02-4.85,0.95-6.66,2.86
				c-0.42,0.44-0.94,0.85-1.57,0.78c-2.63-0.27-4.18,1.33-5.51,3.19c-3.55,4.93-6.06,10.31-6.89,16.4
				c-0.81,5.96,3.73,10.41,9.66,9.42c2.01-0.33,3.83-1.15,5.48-2.3c5.55-3.85,9.62-8.96,12.56-15c1.21-2.49,2.33-5.05,2.37-7.86
				c0.04-2.72,0.02-2.57,2.88-3.22c0.31-0.07,0.63-0.12,0.95-0.15c1.02-0.1,1.61,0.4,1.73,1.38c0.05,0.42-0.03,0.88-0.12,1.3
				c-0.83,3.74-2.6,7.12-4.03,10.63c-1.7,4.18-3.49,8.32-5.23,12.49c-0.59,1.42-0.58,2.81,0.49,4.04c1.74,2.01,4.55,2.19,6.5,0.37
				c0.76-0.71,1.45-1.49,2.11-2.29c3.29-4.03,6.29-8.27,9.36-12.46c0.73-1,1.5-1.98,2.27-2.95c0.22-0.28,0.54-0.55,0.93-0.4
				c0.44,0.16,0.35,0.57,0.3,0.93c-0.08,0.55-0.15,1.11-0.28,1.65c-1.46,6.24,3.87,11.19,10.13,9.9c2.29-0.48,3.08-2.41,1.71-4.31
				C290.85,66.97,289.87,66.27,288.53,66.16z M253.38,53.96c-1.43,3.5-3.46,6.64-5.92,9.51c-1.7,1.98-3.56,3.78-5.72,5.25
				c-0.67,0.46-1.45,1.13-2.29,0.63c-0.91-0.54-0.65-1.58-0.5-2.41c0.8-4.5,2.58-8.61,5.04-12.44c0.34-0.53,0.76-0.91,1.46-0.88
				c1.05,0.05,1.82-1.11,2.82-0.71c1.36,0,2.5-0.38,3.64-0.74c0.5-0.16,1.03-0.39,1.44,0.11C253.8,52.8,253.61,53.38,253.38,53.96z"
				/>
			<path class="st1129" d="M414.06,43.48c-1.2-0.27-2.39-0.25-3.55,0.17c-0.89,0.33-1.49,0.07-2.08-0.65
				c-2.95-3.6-7.07-4.51-11.29-2.5c-3.59,1.71-6.16,4.55-8.23,7.84c-3.58,5.7-5.81,11.99-7.7,18.4c-0.91,3.07-1.67,6.18-1.63,9.42
				c0.04,3.41,2.01,5.34,5.43,5.34c1.96,0,3.79-0.51,5.42-1.65c2.63-1.85,4.66-4.28,6.41-6.91c2.63-3.96,5.13-8.01,7.71-12.01
				c0.37-0.57,0.73-1.56,1.53-1.2c0.71,0.32,0.4,1.29,0.27,1.99c-0.63,3.55-1.15,7.1-1.2,10.72c-0.01,1.84-0.07,3.67,0.61,5.44
				c1.26,3.28,5.04,4.33,7.78,2.13c1.12-0.9,1.21-1.87,0.11-2.8c-0.68-0.57-0.96-1.22-1.05-2.05c-0.13-1.16-0.17-2.32-0.02-3.47
				c0.61-4.48,1.31-8.93,2.38-13.33c0.84-3.45,1.73-6.9,2.2-10.43C417.47,45.48,416.46,44.01,414.06,43.48z M402.58,51.39
				c-4.01,5-7.23,10.54-10.76,15.88c-0.64,0.97-1.24,1.96-2.06,2.79c-0.25,0.25-0.5,0.6-0.91,0.45c-0.43-0.16-0.33-0.58-0.34-0.94
				c0.2-1.72,0.78-3.34,1.33-4.97c1.74-5.12,3.78-10.11,6.84-14.61c0.95-1.39,2.03-2.68,3.26-3.83c1.34-1.24,2.02-1.09,2.74,0.53
				c0.13,0.29,0.23,0.6,0.38,0.88C403.87,48.98,403.59,50.12,402.58,51.39z"/>
		</g>
	</g>
</g>
</svg>
